<?xml version="1.0" standalone="no"?>
<!DOCTYPE svg PUBLIC "-//W3C//DTD SVG 20010904//EN"
 "http://www.w3.org/TR/2001/REC-SVG-20010904/DTD/svg10.dtd">
<svg version="1.0" xmlns="http://www.w3.org/2000/svg"
 width="2400.000000pt" height="2400.000000pt" viewBox="0 0 2400.000000 2400.000000"
 preserveAspectRatio="xMidYMid meet">

<g transform="translate(0.000000,2400.000000) scale(0.100000,-0.100000)"
fill="#000000" stroke="none">
<path d="M12955 18744 c-11 -8 -37 -14 -60 -13 -72 3 -299 -54 -329 -82 -6 -5
-21 -9 -34 -9 -23 0 -197 -84 -207 -100 -3 -5 -19 -11 -35 -15 -17 -4 -35 -15
-40 -26 -6 -10 -15 -19 -21 -19 -15 0 -139 -101 -186 -153 -24 -26 -43 -55
-43 -66 0 -36 -39 -37 -160 -4 -64 17 -66 18 -187 37 -51 9 -99 13 -107 10 -8
-3 -24 0 -37 6 -25 14 -378 20 -386 7 -2 -4 -13 -5 -23 -2 -11 3 -20 0 -24
-10 -5 -13 -10 -14 -27 -5 -15 8 -29 8 -51 1 -22 -8 -35 -8 -44 0 -7 6 -18 8
-23 5 -5 -4 -47 -11 -93 -17 -45 -5 -88 -15 -95 -20 -7 -6 -17 -8 -23 -4 -15
9 -96 -14 -111 -31 -6 -8 -24 -14 -40 -14 -16 0 -29 -5 -29 -11 0 -6 -8 -8
-20 -4 -20 6 -96 -12 -117 -28 -7 -5 -16 -6 -21 -3 -5 3 -19 -6 -32 -19 -17
-18 -29 -23 -50 -18 -15 3 -31 0 -34 -6 -4 -6 -18 -11 -31 -11 -13 0 -27 -4
-30 -10 -3 -5 -14 -10 -23 -10 -9 0 -35 -14 -56 -30 -22 -17 -51 -30 -66 -30
-14 0 -54 -18 -88 -40 -33 -22 -71 -40 -83 -40 -12 0 -23 -8 -26 -20 -3 -13
-14 -20 -28 -20 -12 0 -34 -9 -48 -20 -14 -11 -30 -20 -36 -20 -6 0 -15 -9
-21 -20 -6 -11 -17 -20 -26 -20 -8 0 -24 -9 -36 -20 -12 -11 -30 -20 -39 -20
-10 0 -21 -9 -24 -20 -4 -13 -15 -20 -30 -20 -14 0 -29 -9 -35 -20 -6 -11 -15
-20 -20 -20 -11 0 -50 -36 -51 -47 0 -5 -6 -7 -14 -5 -7 1 -19 -6 -27 -16 -7
-10 -32 -27 -55 -38 -24 -10 -45 -27 -48 -36 -4 -10 -10 -18 -14 -18 -4 0 -27
-18 -51 -40 -24 -22 -48 -40 -53 -40 -10 0 -42 -28 -133 -115 -34 -33 -79 -73
-100 -90 -21 -16 -46 -45 -57 -62 -10 -18 -25 -33 -32 -33 -7 0 -20 -11 -28
-24 -9 -13 -30 -39 -47 -57 -18 -19 -39 -44 -47 -56 -8 -13 -22 -23 -29 -23
-8 0 -14 -9 -14 -20 0 -11 -6 -20 -12 -20 -20 0 -59 -46 -53 -62 3 -8 -24 -41
-65 -81 -38 -37 -70 -74 -70 -82 0 -8 -7 -15 -15 -15 -8 0 -15 -6 -15 -12 0
-7 -18 -32 -40 -56 -22 -23 -37 -48 -34 -56 3 -8 1 -17 -5 -21 -6 -3 -11 -17
-11 -30 0 -26 -33 -55 -62 -55 -11 0 -23 -13 -31 -32 -8 -18 -21 -39 -30 -47
-9 -7 -19 -28 -23 -46 -3 -18 -17 -43 -30 -56 -13 -12 -24 -30 -24 -39 0 -24
-30 -58 -36 -42 -10 23 -24 1 -24 -37 0 -33 -5 -41 -45 -69 -35 -24 -45 -38
-45 -59 0 -18 -8 -33 -21 -41 -14 -9 -19 -20 -16 -33 4 -14 -1 -23 -17 -29
-30 -11 -41 -27 -61 -87 -9 -28 -25 -59 -36 -69 -10 -9 -19 -23 -19 -30 0 -7
-9 -29 -20 -48 -11 -21 -15 -38 -10 -41 17 -10 11 -35 -7 -35 -44 -1 -93 -85
-93 -160 0 -17 -5 -30 -11 -30 -6 0 -8 -7 -5 -16 4 -11 -1 -22 -14 -31 -11 -8
-20 -23 -20 -34 0 -24 -20 -26 -21 -1 0 13 -2 14 -6 2 -3 -8 -13 -34 -24 -57
-10 -24 -19 -50 -19 -59 0 -9 -8 -23 -17 -30 -16 -11 -16 -16 -5 -34 15 -24
13 -28 -20 -44 -16 -8 -23 -21 -23 -41 -1 -16 -6 -30 -13 -33 -7 -2 -12 -12
-12 -21 0 -10 -9 -26 -20 -36 -11 -10 -20 -26 -20 -35 0 -9 -5 -21 -11 -27 -8
-8 -8 -13 0 -17 13 -9 15 -46 2 -46 -13 0 -52 -70 -46 -80 3 -5 -4 -14 -15
-20 -17 -9 -20 -18 -15 -39 4 -20 0 -32 -14 -45 -11 -10 -19 -30 -19 -45 1
-15 -12 -47 -27 -71 -16 -25 -28 -47 -27 -50 2 -10 -10 -55 -20 -77 -8 -17 -8
-26 2 -38 10 -13 9 -15 -8 -15 -23 0 -34 -23 -30 -66 1 -16 -6 -42 -17 -57
-15 -23 -16 -32 -6 -53 14 -32 7 -44 -25 -44 -23 0 -24 -2 -18 -52 5 -48 3
-56 -20 -81 -17 -19 -26 -39 -26 -62 0 -19 -9 -50 -21 -69 -12 -20 -18 -36
-14 -36 4 0 3 -6 -2 -12 -13 -17 -27 -68 -24 -90 1 -10 -3 -18 -9 -18 -6 0
-11 -12 -9 -27 1 -16 -3 -41 -9 -56 -9 -20 -9 -32 -1 -46 9 -14 8 -23 -6 -44
-9 -15 -21 -27 -26 -27 -15 0 -23 -92 -9 -113 10 -17 7 -26 -20 -65 -26 -37
-30 -49 -21 -64 15 -24 14 -38 -3 -38 -18 0 -29 -59 -15 -77 9 -10 8 -18 -5
-31 -9 -10 -16 -27 -16 -37 0 -10 -7 -23 -17 -30 -10 -8 -13 -17 -8 -26 5 -7
10 -20 11 -29 1 -8 5 -25 9 -37 5 -16 1 -25 -14 -35 -24 -15 -28 -46 -6 -54
19 -8 19 -24 0 -24 -8 0 -22 -11 -31 -25 -13 -20 -14 -28 -4 -40 7 -9 9 -24 5
-37 -4 -13 -11 -50 -16 -83 -12 -91 -19 -128 -29 -150 -5 -11 -14 -60 -19
-109 -6 -50 -15 -94 -21 -100 -15 -15 -12 -46 5 -52 19 -8 19 -23 0 -44 -8 -9
-18 -31 -21 -48 -5 -25 -3 -32 10 -32 9 0 16 -4 16 -10 0 -5 -4 -10 -9 -10 -5
0 -12 -19 -16 -42 -6 -34 -4 -44 11 -55 14 -10 16 -16 7 -21 -7 -5 -18 -44
-24 -87 -6 -44 -15 -88 -20 -97 -15 -29 -10 -55 12 -69 19 -14 20 -15 3 -49
-10 -19 -25 -40 -33 -46 -13 -10 -14 -16 -2 -37 8 -16 11 -44 8 -81 -4 -42 -1
-60 10 -72 14 -13 13 -17 -2 -34 -11 -12 -15 -28 -12 -41 3 -12 1 -31 -4 -41
-5 -10 -7 -24 -3 -30 13 -20 14 -67 3 -73 -6 -4 -7 -24 -3 -51 4 -26 2 -44 -3
-44 -14 0 -8 -83 6 -88 15 -5 13 -33 -4 -57 -15 -19 -12 -78 6 -101 4 -5 10
-43 12 -83 4 -67 3 -72 -14 -68 -24 6 -24 3 0 -31 26 -38 34 -87 16 -102 -20
-17 -20 -86 0 -94 22 -8 18 -33 -6 -46 -30 -16 -23 -66 9 -62 21 3 32 -13 12
-20 -5 -2 -6 -17 -1 -39 5 -20 5 -57 1 -83 -8 -56 -2 -146 12 -163 7 -9 6 -18
-3 -29 -12 -14 -10 -19 14 -38 32 -26 34 -40 7 -52 -18 -9 -18 -11 -3 -41 12
-25 13 -36 4 -47 -9 -11 -6 -26 16 -70 27 -55 27 -56 8 -70 -18 -13 -19 -18
-8 -46 6 -17 9 -38 6 -46 -3 -8 0 -14 5 -14 7 0 8 -20 5 -56 -4 -37 -2 -58 5
-63 6 -4 13 -17 15 -29 2 -12 6 -24 9 -27 8 -9 638 -11 646 -3 5 5 5 43 1 85
-7 70 -12 196 -24 544 -4 120 4 159 24 121 6 -11 11 -30 11 -42 0 -35 31 -174
41 -184 5 -6 9 -26 9 -46 0 -20 4 -40 9 -46 14 -14 51 -160 51 -201 0 -39 29
-132 62 -200 l20 -42 82 -4 c161 -9 176 -23 176 -158 0 -43 4 -111 10 -151 14
-103 19 -282 24 -748 2 -223 0 -412 -5 -421 -5 -9 -4 -31 1 -49 6 -19 6 -39 0
-49 -5 -10 -11 -71 -14 -137 -3 -65 -9 -162 -15 -214 -5 -53 -8 -114 -6 -135
1 -22 -1 -45 -6 -51 -5 -6 -8 -24 -7 -40 0 -16 -2 -51 -5 -79 -4 -27 -9 -72
-12 -99 -3 -28 -10 -64 -17 -82 -9 -25 -9 -36 0 -47 9 -11 9 -21 -2 -43 -18
-38 -47 -237 -35 -245 5 -3 0 -23 -10 -45 -12 -25 -19 -60 -19 -95 0 -30 -4
-64 -10 -75 -13 -25 -32 -108 -32 -139 0 -13 -5 -27 -11 -31 -6 -4 -8 -20 -5
-39 5 -25 3 -34 -10 -39 -11 -4 -14 -13 -11 -28 3 -11 -1 -37 -9 -56 -7 -19
-14 -45 -14 -58 0 -12 -5 -26 -10 -29 -6 -4 -8 -21 -4 -41 5 -25 2 -38 -9 -47
-18 -15 -33 -63 -43 -137 -3 -30 -15 -67 -25 -82 -11 -14 -22 -41 -25 -60 -4
-18 -11 -39 -17 -46 -5 -6 -7 -26 -4 -42 5 -24 2 -33 -18 -46 -14 -9 -25 -25
-25 -36 0 -19 -17 -58 -29 -68 -4 -3 -12 -17 -19 -33 -10 -24 -9 -29 8 -39 24
-15 28 -68 6 -68 -21 0 -30 -20 -17 -33 6 -6 11 -27 11 -47 0 -49 31 -76 95
-84 47 -6 312 -10 345 -6 8 1 23 -1 32 -5 13 -5 20 -1 25 11 7 21 81 133 179
273 34 47 144 281 144 304 0 16 7 36 40 112 10 22 21 56 25 75 4 19 14 51 22
70 44 103 99 260 117 335 9 39 24 77 32 85 14 14 15 6 8 -80 -4 -52 -8 -124
-9 -160 -1 -36 -4 -72 -8 -80 -10 -27 -36 -156 -44 -220 -3 -25 -10 -51 -16
-58 -6 -7 -17 -43 -24 -80 -8 -37 -19 -85 -24 -107 -6 -22 -13 -55 -16 -73 -3
-18 -9 -35 -14 -38 -5 -3 -9 -16 -9 -30 0 -14 -9 -44 -20 -66 -11 -23 -20 -45
-20 -49 0 -3 -22 -47 -50 -97 -55 -100 -59 -112 -32 -112 10 0 22 -3 26 -8 11
-11 139 -11 153 0 7 6 19 5 32 -1 27 -15 147 -14 171 1 16 10 24 10 40 0 24
-15 62 -16 77 -1 8 8 16 7 30 -2 13 -8 36 -9 68 -4 39 5 57 15 87 47 21 22 38
48 38 57 0 9 4 21 9 26 18 19 49 82 56 113 3 18 12 38 18 45 17 18 97 175 97
191 0 7 8 24 18 37 10 13 28 56 41 94 12 39 26 79 31 90 27 66 51 136 60 175
60 245 79 330 110 494 11 60 22 112 24 114 3 2 10 1 16 -3 7 -4 9 -19 4 -38
-4 -18 -8 -52 -10 -77 -6 -123 -34 -396 -50 -510 -30 -200 -31 -215 -27 -227
3 -7 1 -13 -4 -13 -9 0 -16 -23 -47 -145 -7 -27 -15 -57 -18 -65 -3 -8 -13
-49 -23 -90 -10 -41 -24 -88 -31 -105 -7 -16 -22 -64 -34 -105 -12 -41 -24
-83 -26 -92 -5 -15 3 -17 63 -17 79 1 434 1 672 0 90 0 172 4 182 9 10 6 78
12 151 14 288 9 378 17 391 35 7 9 27 27 44 39 44 31 63 98 63 216 0 22 5 45
11 52 6 7 12 30 13 51 1 21 4 43 8 48 6 11 17 138 24 280 2 50 7 108 10 130 3
22 8 130 12 240 6 160 4 205 -6 224 -11 18 -12 29 -3 48 6 13 8 29 4 36 -3 6
-8 94 -9 196 -3 192 -16 351 -35 409 -17 53 -7 64 38 41 20 -10 44 -19 53 -19
9 0 20 -4 25 -9 6 -4 53 -23 105 -41 52 -18 99 -36 105 -41 5 -5 27 -9 50 -9
22 -1 58 -9 80 -20 22 -11 48 -19 57 -20 9 0 19 -4 22 -9 3 -5 33 -12 66 -16
33 -4 63 -11 66 -16 3 -5 18 -9 33 -9 15 0 31 -4 36 -9 6 -4 62 -13 125 -20
63 -6 138 -14 165 -18 28 -3 100 -5 160 -5 61 0 119 0 130 -1 113 -5 374 11
402 25 12 6 35 8 53 6 23 -3 34 0 40 13 8 15 15 16 46 7 28 -7 39 -7 45 4 5 7
25 13 46 14 60 1 126 15 151 30 12 8 27 12 32 9 5 -3 28 1 52 10 24 8 51 15
61 15 10 0 20 7 23 15 4 10 13 13 24 10 10 -3 21 -1 25 5 3 5 15 10 26 10 27
0 81 29 74 40 -3 5 -1 11 4 14 5 3 11 -1 15 -9 6 -17 36 -21 36 -5 0 6 8 14
18 17 9 4 23 13 31 20 9 10 17 11 25 4 12 -10 76 15 100 39 5 5 17 10 27 10 9
0 45 13 80 29 48 22 67 37 77 60 15 35 29 39 48 14 11 -17 14 -16 38 10 14 15
29 27 33 28 31 3 49 11 72 31 14 13 48 35 74 48 26 13 59 34 73 47 14 13 31
23 38 23 8 0 19 7 26 15 27 33 41 18 40 -42 -3 -106 -20 -297 -31 -346 -8 -36
-8 -51 1 -62 10 -12 9 -23 -6 -52 -19 -40 -33 -118 -38 -221 -2 -35 -9 -69
-15 -75 -6 -6 -11 -31 -11 -56 0 -24 -4 -58 -9 -75 -12 -37 -30 -159 -36 -234
-2 -30 -8 -59 -13 -65 -8 -10 -19 -74 -27 -168 -2 -14 -7 -35 -13 -45 -5 -11
-7 -25 -5 -32 3 -7 -2 -24 -11 -37 -14 -21 -20 -52 -30 -148 -2 -15 -8 -33
-14 -39 -7 -7 -12 -22 -12 -34 0 -13 -4 -26 -10 -29 -5 -3 -10 -19 -10 -34 0
-15 -4 -31 -8 -37 -5 -5 -14 -34 -22 -64 -7 -30 -16 -57 -20 -60 -4 -3 -10
-22 -13 -43 -3 -20 -9 -43 -14 -50 -5 -6 -10 -56 -12 -110 l-3 -99 34 7 c18 3
41 9 50 11 10 3 21 -3 28 -16 7 -13 21 -20 38 -20 16 0 33 -5 40 -12 9 -9 76
-14 225 -16 116 -2 301 -6 410 -9 143 -3 202 -1 212 7 8 6 19 9 25 5 15 -9 40
13 40 35 0 15 49 125 91 202 5 10 9 25 9 33 0 18 36 92 55 115 7 8 20 38 29
65 9 28 28 73 41 100 27 57 50 118 71 190 9 28 19 59 24 70 5 11 12 36 16 55
3 19 10 40 14 45 4 6 13 35 19 65 7 30 17 73 22 95 6 22 18 75 28 117 9 42 20
80 24 84 4 4 7 18 7 30 0 13 5 26 10 29 6 4 8 14 5 24 -3 9 4 36 15 59 11 22
20 57 20 77 0 19 4 35 8 35 5 0 14 -81 22 -179 13 -178 10 -327 -10 -461 -6
-36 -12 -92 -15 -125 -3 -33 -7 -78 -10 -100 -3 -22 -7 -69 -11 -105 -3 -36
-13 -92 -21 -125 -8 -33 -19 -87 -23 -120 -8 -59 -32 -146 -64 -234 -9 -24
-16 -54 -16 -66 l0 -22 369 -2 369 -1 27 77 c14 43 30 94 35 113 4 19 24 84
44 144 20 59 36 115 36 122 0 8 4 22 9 32 14 28 29 83 41 152 7 36 15 74 20
85 9 21 16 55 30 150 10 71 26 154 34 175 12 32 37 158 42 215 6 69 17 87 34
54 10 -17 11 -74 5 -233 -10 -307 -13 -367 -20 -406 -3 -19 -8 -60 -11 -90 -6
-82 -34 -298 -45 -350 -20 -94 -37 -255 -29 -270 9 -17 75 -36 160 -46 50 -6
272 -10 835 -15 171 -2 206 1 243 16 36 15 43 22 42 44 -3 41 -1 51 11 51 18
0 72 68 86 109 15 40 27 129 26 179 -1 17 3 32 8 32 6 0 7 14 4 33 -5 24 -2
37 9 46 9 8 16 26 16 41 0 28 5 55 36 200 9 41 17 91 19 110 2 19 8 60 14 90
6 30 12 69 14 85 3 17 9 54 16 84 6 29 11 70 11 90 0 21 4 41 10 47 5 5 12 36
14 69 5 53 10 90 30 200 3 17 8 50 11 75 3 25 12 96 19 159 8 63 12 120 9 127
-3 7 -1 19 4 26 4 7 9 27 10 43 1 17 9 71 17 120 18 104 48 410 62 630 3 50
10 128 15 175 13 125 20 261 20 380 0 58 4 119 9 136 7 20 7 40 1 56 -6 16 -6
29 0 35 5 5 12 79 14 164 2 85 5 163 5 174 2 22 1 109 -1 140 -2 35 -2 56 4
203 3 79 3 152 -2 163 -4 12 -3 52 2 90 6 51 6 74 -3 84 -10 12 -10 21 0 44 8
20 9 35 2 48 -6 11 -11 98 -11 201 0 100 -2 186 -5 191 -6 10 -16 169 -22 366
-6 199 -14 328 -21 345 -3 8 -7 33 -9 55 -7 92 -15 169 -24 237 -6 40 -14 125
-19 188 -5 63 -15 135 -21 160 -7 25 -13 68 -15 95 -5 91 -28 260 -36 269 -5
6 -9 29 -9 52 0 24 -5 46 -10 49 -6 3 -9 25 -9 48 2 52 -19 186 -32 210 -5 10
-7 22 -4 27 3 4 0 21 -6 37 -6 15 -13 42 -15 58 -12 96 -28 176 -35 181 -5 3
-9 25 -9 49 0 38 5 48 30 67 17 12 30 28 30 36 0 8 38 52 84 97 71 71 83 87
79 109 -4 21 -2 26 16 26 15 0 21 7 23 23 2 43 3 47 10 44 13 -5 48 37 48 59
0 13 9 39 21 58 12 20 18 36 14 36 -4 0 -2 7 5 15 6 8 9 23 5 34 -4 12 0 30 9
43 9 12 16 35 16 50 0 15 5 30 10 33 6 3 10 26 10 50 0 24 5 47 10 50 14 8 13
45 -1 45 -6 0 -9 7 -5 15 3 8 0 28 -5 44 -8 24 -7 35 5 53 20 28 20 38 2 38
-27 0 -39 30 -38 96 1 57 -1 64 -16 60 -18 -6 -42 32 -42 65 0 33 -97 97 -172
113 -15 3 -33 12 -40 19 -19 18 -117 57 -144 57 -13 0 -24 4 -24 9 0 5 -10 12
-22 16 -13 3 -50 18 -83 32 -63 27 -74 31 -145 58 -25 9 -58 22 -75 30 -16 7
-49 18 -72 25 -24 7 -43 16 -43 20 0 4 -15 13 -32 19 -18 7 -51 21 -73 31 -22
10 -61 26 -87 34 -26 9 -64 25 -85 36 -21 11 -44 20 -51 20 -7 0 -39 13 -70
28 -31 16 -61 30 -67 31 -22 7 -62 23 -89 37 -16 8 -33 14 -38 14 -4 0 -30 9
-56 21 -26 12 -56 24 -67 29 -11 4 -33 13 -50 20 -32 14 -38 16 -134 55 -35
15 -70 24 -78 20 -9 -3 -23 4 -33 15 -21 25 -197 103 -211 94 -6 -3 -16 1 -22
8 -7 8 -28 21 -47 28 -53 19 -100 39 -152 66 -26 13 -56 24 -66 24 -9 0 -27 6
-38 14 -11 8 -41 22 -65 32 -48 18 -80 31 -151 63 -26 12 -51 21 -55 21 -4 0
-30 11 -57 25 -27 14 -53 25 -58 25 -4 0 -30 9 -56 21 -76 34 -110 48 -172 69
-29 11 -103 43 -182 82 -10 4 -26 8 -35 8 -10 0 -29 9 -43 20 -14 11 -33 20
-42 20 -9 0 -19 4 -22 9 -3 5 -17 12 -30 15 -14 3 -54 20 -89 36 -36 17 -70
30 -77 30 -6 0 -36 11 -66 25 -30 14 -58 25 -62 25 -5 0 -27 9 -50 20 -22 11
-45 20 -50 20 -6 0 -22 6 -36 14 -28 14 -190 11 -211 -4 -5 -4 -48 -8 -95 -8
-47 -1 -125 -6 -175 -11 -49 -6 -137 -13 -195 -15 -192 -9 -285 -17 -308 -29
-17 -8 -25 -8 -34 1 -15 15 -63 15 -90 1 -11 -6 -67 -12 -124 -13 -81 -2 -107
-6 -122 -19 -10 -9 -21 -17 -25 -17 -17 0 -57 -49 -51 -64 10 -26 -3 -19 -30
17 -28 36 -26 55 11 134 15 31 18 32 92 37 160 10 173 16 152 68 -5 13 -24 61
-42 108 -17 47 -36 89 -41 94 -4 6 -8 19 -8 30 0 12 -12 44 -25 71 -14 28 -25
54 -25 59 0 5 -7 18 -17 28 -29 33 -7 29 30 -5 20 -18 43 -50 52 -70 9 -21 22
-40 30 -43 7 -3 21 -22 30 -42 8 -20 29 -55 45 -77 16 -22 44 -65 61 -95 47
-83 58 -90 132 -90 34 0 67 4 72 9 6 5 48 12 95 15 47 3 146 10 220 17 74 7
241 13 370 13 200 1 245 -2 303 -18 37 -10 67 -22 67 -27 0 -5 14 -9 30 -9 17
0 38 -4 48 -9 44 -24 110 -51 123 -51 8 0 19 -4 25 -8 5 -5 35 -17 66 -26 32
-10 60 -22 63 -27 3 -4 25 -14 48 -20 23 -6 62 -20 87 -31 25 -11 61 -27 80
-35 19 -8 47 -21 62 -29 14 -8 37 -14 51 -14 13 0 30 -6 36 -13 6 -8 29 -20
51 -27 22 -7 45 -19 51 -27 6 -7 23 -13 36 -13 14 0 37 -6 51 -14 15 -7 38
-18 52 -24 14 -5 63 -26 110 -46 47 -20 91 -36 98 -36 7 0 38 -13 70 -29 31
-15 70 -31 86 -35 17 -4 43 -17 59 -28 17 -12 37 -22 46 -23 25 -2 60 -15 129
-46 34 -16 66 -29 71 -29 4 0 35 -13 67 -30 32 -16 68 -30 79 -30 11 0 31 -9
45 -20 14 -11 31 -20 39 -20 7 0 56 -18 107 -40 52 -22 100 -40 108 -40 7 0
24 -8 37 -19 13 -10 29 -16 36 -14 6 2 19 -7 29 -21 9 -14 23 -26 30 -26 8 0
14 -4 14 -8 0 -4 22 -9 49 -10 48 -2 113 -23 141 -46 8 -7 35 -19 60 -26 25
-8 70 -25 100 -38 30 -13 71 -31 90 -39 19 -8 44 -20 55 -26 52 -28 77 -39 81
-34 8 7 -20 95 -50 161 -14 31 -26 63 -26 71 0 9 -13 41 -30 72 -16 31 -30 62
-30 70 0 7 -4 21 -9 31 -21 40 -61 133 -61 143 0 20 -114 254 -136 280 -8 8
-14 24 -14 35 0 11 -4 24 -9 30 -15 16 -121 225 -121 240 0 7 -11 24 -25 38
-14 14 -25 31 -25 38 0 16 -39 91 -51 98 -4 3 -17 26 -28 50 -31 67 -70 134
-84 145 -7 6 -21 26 -30 45 -39 78 -116 200 -182 290 -31 41 -61 87 -67 103
-7 15 -16 27 -19 27 -4 0 -17 16 -30 36 -20 33 -78 106 -114 145 -8 9 -15 20
-15 25 0 6 -19 33 -42 60 -24 28 -54 66 -68 85 -14 19 -49 59 -77 90 -29 31
-53 58 -53 61 0 11 -167 178 -178 178 -6 0 -20 17 -32 38 -12 21 -38 52 -57
68 -20 16 -66 58 -103 94 -37 36 -75 71 -86 78 -36 24 -39 27 -50 47 -6 11
-20 25 -31 30 -12 6 -31 21 -44 33 -49 45 -84 72 -109 82 -14 6 -36 26 -50 45
-14 18 -36 37 -49 40 -13 3 -51 28 -85 55 -33 28 -69 50 -79 50 -10 0 -20 7
-24 15 -3 9 -22 25 -42 36 -20 11 -58 33 -86 50 -27 16 -59 33 -70 38 -12 5
-27 16 -34 25 -7 9 -19 16 -27 16 -7 0 -35 14 -61 30 -26 17 -54 30 -62 31 -9
0 -29 9 -46 20 -43 27 -114 59 -133 59 -8 0 -23 6 -31 14 -15 13 -114 53 -231
93 -25 8 -51 20 -57 25 -7 6 -31 10 -54 10 -23 -1 -51 5 -63 13 -27 18 -102
43 -146 49 -19 3 -57 12 -84 21 -27 8 -66 15 -87 15 -21 0 -40 4 -43 9 -3 4
-29 11 -58 15 -222 27 -348 40 -380 37 -40 -3 -59 -3 -200 0 -102 1 -152 -2
-162 -10 -10 -9 -20 -9 -40 0 -20 10 -38 10 -77 1 -68 -16 -89 -15 -89 4 0 21
38 51 75 60 17 3 35 10 40 14 6 4 51 22 100 40 50 17 103 39 119 47 16 9 66
18 115 20 47 3 95 10 105 16 29 15 347 11 466 -6 58 -8 112 -15 120 -15 66 0
220 -32 298 -63 13 -5 34 -9 47 -9 13 0 26 -4 29 -9 3 -5 20 -11 38 -14 61 -9
143 -34 187 -55 53 -26 81 -28 81 -7 0 15 -43 65 -55 65 -4 0 -32 19 -63 43
-32 24 -72 52 -89 62 -18 11 -33 23 -33 27 0 4 -4 8 -9 8 -5 0 -49 18 -98 40
-137 63 -160 71 -258 90 -33 6 -82 15 -108 21 -27 5 -64 9 -82 9 -19 0 -37 5
-40 10 -4 6 -91 10 -228 10 -181 -1 -226 -3 -242 -16z m-4850 -2634 c-3 -5
-10 -10 -16 -10 -5 0 -9 5 -9 10 0 6 7 10 16 10 8 0 12 -4 9 -10z m2975 -259
c0 -17 -4 -33 -10 -36 -5 -3 -10 -24 -10 -46 0 -22 -5 -50 -12 -62 -6 -12 -11
-36 -9 -54 1 -17 -5 -42 -13 -56 -11 -16 -15 -37 -11 -62 2 -21 0 -43 -5 -50
-9 -11 -19 -80 -23 -170 -2 -28 -8 -64 -15 -80 -9 -24 -21 -147 -21 -212 0
-17 -2 -50 -6 -143 -13 -257 2 -686 24 -729 12 -21 113 -37 172 -26 29 5 273
11 567 14 l84 1 -6 58 c-3 31 -7 84 -8 117 -1 33 -5 65 -9 70 -14 21 -21 97
-26 270 -2 99 -4 187 -4 195 2 141 12 387 21 500 6 80 13 186 16 235 2 50 10
115 17 145 11 54 12 55 17 20 3 -19 7 -107 9 -195 1 -88 5 -163 8 -168 5 -9
10 -47 17 -142 3 -33 6 -60 7 -60 1 0 2 -28 4 -61 1 -34 6 -68 11 -75 5 -8 10
-39 11 -69 2 -61 5 -79 16 -96 4 -7 7 -23 6 -35 -1 -52 42 -285 71 -384 12
-38 25 -83 30 -100 17 -59 42 -131 60 -175 l19 -45 88 -3 c48 -2 124 2 168 8
44 7 99 11 122 10 24 0 51 4 62 10 14 7 27 7 46 -2 21 -9 31 -9 46 0 10 7 41
12 67 12 27 0 63 7 80 16 18 8 36 13 42 9 5 -3 45 -1 87 6 43 6 97 13 120 14
23 2 57 10 75 18 55 25 99 37 134 37 18 0 35 4 38 9 3 5 22 12 41 15 24 5 39
14 44 28 9 25 4 92 -9 128 -5 14 -12 63 -16 109 -5 69 -4 82 7 76 20 -12 84
-71 146 -135 171 -176 213 -223 213 -236 0 -8 4 -22 10 -32 5 -9 21 -57 35
-107 14 -49 30 -104 35 -121 20 -63 9 -74 -77 -74 -23 0 -54 -5 -69 -10 -19
-8 -30 -8 -38 0 -12 12 -53 13 -60 2 -3 -5 -58 -12 -123 -16 -65 -4 -149 -12
-188 -17 -38 -5 -95 -12 -125 -15 -30 -4 -63 -13 -72 -21 -9 -8 -22 -12 -28
-8 -6 4 -16 2 -23 -3 -7 -5 -32 -13 -55 -17 -44 -7 -180 -47 -217 -64 -11 -5
-47 -19 -80 -31 -65 -23 -111 -44 -135 -60 -8 -5 -27 -14 -43 -20 -15 -5 -30
-17 -34 -26 -11 -28 15 -88 46 -107 28 -16 34 -16 105 -1 42 10 76 21 76 26 0
4 15 8 33 8 18 0 42 7 53 15 26 20 46 19 42 -2 -2 -11 -13 -18 -25 -18 -12 0
-33 -11 -47 -24 -13 -13 -29 -21 -34 -17 -5 3 -20 -6 -33 -20 -13 -14 -41 -35
-61 -45 -39 -20 -202 -175 -231 -219 -9 -14 -30 -43 -47 -65 -16 -22 -42 -65
-56 -95 -14 -30 -36 -77 -50 -104 -13 -28 -24 -62 -24 -76 0 -14 -7 -36 -16
-49 -19 -27 -46 -133 -45 -179 1 -23 -4 -34 -16 -38 -10 -3 -26 -10 -36 -15
-10 -5 -23 -6 -30 -2 -21 13 -249 19 -364 9 -73 -6 -78 -1 -88 74 -8 65 -24
119 -42 141 -7 8 -13 26 -13 40 0 27 -35 89 -50 89 -5 0 -10 10 -10 21 0 21
-32 82 -57 107 -7 7 -13 18 -13 23 0 5 -7 9 -15 9 -8 0 -22 18 -31 40 -9 21
-24 42 -33 45 -10 3 -24 16 -31 30 -7 14 -26 30 -42 37 -15 7 -31 21 -34 30
-3 10 -12 18 -20 18 -8 0 -32 18 -53 40 -21 22 -47 40 -58 40 -12 0 -24 7 -27
15 -3 9 -32 28 -63 42 -32 14 -80 36 -108 48 -111 51 -127 56 -141 44 -8 -6
-14 -17 -14 -23 0 -7 -20 -10 -60 -8 l-61 4 7 -40 c5 -32 2 -43 -16 -60 l-22
-20 22 -30 c27 -36 66 -66 100 -77 14 -4 32 -13 40 -20 8 -7 48 -22 88 -33 42
-12 88 -33 111 -51 21 -17 43 -31 47 -31 18 0 104 -78 150 -135 27 -33 56 -66
66 -73 10 -7 18 -20 18 -28 0 -9 13 -35 30 -58 42 -57 95 -202 105 -281 2 -16
8 -49 13 -72 5 -25 6 -61 1 -85 -4 -24 -8 -61 -9 -82 0 -22 -4 -53 -9 -70 -5
-17 -15 -56 -22 -86 -20 -95 -90 -226 -188 -353 -52 -67 -176 -181 -222 -204
-25 -12 -56 -34 -69 -48 -13 -14 -34 -25 -46 -25 -27 0 -70 -17 -103 -42 -13
-10 -39 -18 -57 -18 -18 0 -46 -5 -61 -11 -15 -6 -37 -15 -48 -20 -53 -21
-243 -26 -360 -8 -81 12 -122 23 -185 49 -156 64 -180 75 -180 82 0 4 -26 25
-57 46 -74 50 -253 252 -253 285 0 8 -7 20 -15 27 -25 21 -84 227 -94 330 -14
151 30 396 88 479 10 14 21 34 24 44 23 62 98 166 175 243 134 133 233 194
451 275 35 13 66 31 69 39 3 8 10 18 16 22 7 5 7 18 -2 41 -7 18 -12 40 -12
49 0 25 -48 51 -84 45 -56 -8 -240 -78 -284 -108 -24 -16 -50 -29 -58 -29 -16
0 -94 -49 -94 -60 0 -3 -24 -22 -52 -40 -29 -18 -61 -41 -70 -51 -9 -9 -21
-19 -25 -20 -8 -4 -127 -149 -164 -201 -10 -13 -21 -19 -25 -15 -11 10 -6 138
6 152 5 6 10 52 11 101 2 49 6 94 9 99 4 6 10 42 14 80 12 125 14 130 54 145
20 7 51 15 67 17 17 2 37 6 45 10 8 3 26 7 40 8 52 5 104 16 110 23 6 8 55 10
390 15 129 2 240 5 245 7 6 2 29 -2 52 -8 23 -7 73 -14 110 -16 92 -6 303 -40
328 -53 11 -6 33 -9 48 -6 15 3 41 0 58 -7 24 -11 41 -10 87 1 55 12 112 53
112 78 0 9 -54 50 -94 72 -44 24 -59 29 -85 29 -16 0 -34 7 -41 15 -7 8 -28
17 -49 21 -20 3 -74 19 -121 35 -46 16 -94 29 -105 29 -12 0 -25 4 -30 9 -6 5
-37 12 -70 15 -33 3 -78 8 -100 11 -22 3 -101 7 -176 8 -75 2 -141 7 -147 11
-7 4 -16 5 -21 1 -11 -6 -266 -20 -333 -17 -26 1 -50 -3 -53 -8 -3 -6 -19 -10
-34 -10 -15 0 -32 -5 -38 -11 -6 -6 -33 -12 -59 -14 -27 -1 -66 -6 -87 -10
l-38 -7 6 63 c4 35 10 75 15 89 5 14 11 43 14 65 3 22 10 60 16 85 6 25 12 66
14 91 2 25 8 61 14 80 15 50 33 125 48 199 7 36 17 81 23 100 5 19 17 67 26
105 9 39 21 78 26 87 5 10 9 24 9 32 0 8 9 35 20 60 10 25 21 57 23 71 1 13 6
27 10 31 4 4 7 15 7 25 0 10 9 33 20 51 11 18 20 42 20 52 0 10 14 48 30 83
17 34 30 69 30 76 0 7 9 31 19 53 10 21 24 59 31 84 7 25 21 57 31 71 10 15
19 37 19 48 0 12 8 33 17 48 15 23 17 24 23 7 4 -10 -1 -37 -11 -59 -9 -22
-20 -62 -24 -90 -4 -27 -15 -68 -24 -90 -10 -22 -24 -69 -30 -105 -7 -35 -19
-73 -26 -84 -8 -11 -12 -31 -8 -46 3 -15 0 -31 -6 -34 -6 -4 -11 -17 -11 -29
0 -12 -7 -41 -15 -64 -8 -22 -17 -54 -20 -70 -16 -85 -37 -215 -44 -268 -3
-33 -10 -66 -15 -74 -5 -8 -3 -16 5 -22 11 -7 12 -12 2 -29 -18 -27 -16 -130
2 -171 21 -48 50 -79 74 -79 11 0 25 -9 31 -21 7 -11 17 -18 25 -15 7 2 28 -4
47 -14 19 -10 56 -21 81 -23 26 -3 51 -9 57 -12 12 -8 40 -11 200 -23 58 -4
112 -12 122 -16 9 -4 28 -1 46 8 21 11 45 13 85 9 32 -3 57 -2 58 3 0 5 2 36
4 69 3 33 6 76 9 95 3 19 6 63 7 98 1 35 6 65 10 68 4 2 11 26 15 52 3 26 12
54 18 62 7 8 13 33 15 55 1 22 6 54 11 70 21 73 30 114 30 140 0 15 7 33 15
39 8 6 19 31 25 56 5 25 12 59 15 75 4 17 18 54 31 84 14 30 28 68 31 85 3 17
11 40 18 51 6 11 18 38 25 60 7 22 26 69 42 105 17 36 41 90 55 120 14 30 48
100 76 155 28 55 60 119 71 142 25 50 36 55 36 14z m740 -26 c0 -13 -4 -27
-10 -30 -6 -4 -10 8 -10 30 0 22 4 34 10 30 6 -3 10 -17 10 -30z m-1820 -75
c0 -5 -4 -10 -10 -10 -5 0 -10 5 -10 10 0 6 5 10 10 10 6 0 10 -4 10 -10z
m-44 -97 c-11 -11 -19 6 -11 24 8 17 8 17 12 0 3 -10 2 -21 -1 -24z m-8 -25
c-6 -18 -28 -21 -28 -4 0 9 7 16 16 16 9 0 14 -5 12 -12z m3992 -401 c14 1 54
4 89 9 58 6 64 5 58 -10 -4 -9 0 -28 9 -40 20 -32 29 -176 14 -251 -6 -33 -11
-70 -11 -81 0 -12 -6 -27 -14 -34 -8 -6 -19 -27 -25 -46 -6 -19 -16 -34 -21
-34 -5 0 -9 -10 -9 -22 0 -14 -18 -41 -45 -67 -25 -24 -45 -48 -45 -52 0 -17
-33 -39 -60 -39 -22 0 -46 19 -116 91 -49 50 -105 106 -124 125 l-34 33 19 23
c11 12 28 29 38 36 9 7 17 18 17 24 0 6 11 25 24 42 13 17 27 42 31 56 4 14
12 31 18 38 12 15 15 125 5 163 -7 25 -5 27 45 37 28 5 66 8 82 4 17 -3 41 -5
55 -5z m558 -140 c8 -6 11 -21 7 -39 -4 -17 -2 -28 4 -28 6 0 11 -8 11 -19 0
-10 6 -24 14 -30 19 -16 66 13 66 40 0 11 5 19 10 19 6 0 10 -5 10 -11 0 -7 9
-9 24 -5 16 4 32 -1 50 -15 16 -13 33 -18 46 -14 14 5 20 2 20 -9 0 -9 8 -16
18 -17 9 0 31 -8 47 -18 24 -15 29 -24 27 -47 -5 -40 -19 -54 -56 -54 -17 0
-39 -7 -49 -15 -28 -20 -7 -78 33 -95 35 -15 51 -3 69 51 22 68 92 107 154 86
28 -9 37 -27 13 -27 -7 0 -19 -14 -26 -31 -19 -44 -4 -64 46 -64 38 0 39 1 42
38 2 21 -1 37 -7 37 -6 0 -11 5 -11 10 0 16 30 12 36 -5 4 -8 17 -15 30 -15
13 0 33 -9 44 -20 11 -11 25 -20 32 -20 7 0 24 -12 40 -27 24 -23 31 -25 53
-15 42 19 48 15 42 -28 -4 -34 -2 -43 20 -60 14 -11 32 -20 40 -20 22 0 63 31
63 47 0 11 8 9 32 -9 35 -25 92 -48 120 -48 10 0 22 -9 28 -20 6 -11 20 -20
30 -20 12 0 20 -7 20 -17 0 -38 67 -72 85 -43 8 13 88 7 93 -8 2 -6 -8 -16
-22 -22 -14 -5 -26 -16 -26 -24 0 -8 -6 -16 -12 -19 -22 -7 22 -47 53 -47 49
0 59 9 59 52 0 37 2 39 17 27 13 -11 17 -11 20 -1 7 19 21 14 25 -10 2 -14 14
-25 33 -31 17 -5 39 -18 50 -28 12 -10 35 -22 53 -25 34 -7 56 -33 66 -81 4
-17 14 -34 23 -37 15 -6 73 22 73 36 0 11 49 -1 77 -18 12 -8 33 -14 46 -14
13 0 32 -8 43 -18 28 -27 74 -37 74 -17 0 9 5 13 10 10 6 -3 10 -21 10 -40 0
-39 12 -46 94 -51 70 -4 77 -9 48 -30 -31 -22 -31 -90 0 -100 16 -5 27 0 45
20 13 15 23 36 23 47 0 10 4 19 10 19 25 0 113 -41 130 -60 10 -12 38 -27 62
-34 38 -12 43 -17 46 -47 4 -34 34 -69 59 -69 15 0 63 47 63 61 0 14 13 10 38
-9 19 -14 22 -24 16 -46 -4 -16 -17 -31 -30 -36 -27 -11 -35 -60 -9 -60 7 0
18 -7 23 -16 7 -12 17 -15 35 -10 34 8 39 29 22 78 -8 23 -12 44 -10 46 2 3
24 1 48 -2 34 -5 47 -13 55 -31 7 -15 20 -25 32 -25 12 0 20 -7 20 -16 0 -34
62 -58 87 -33 8 8 17 4 32 -12 23 -25 26 -35 11 -44 -15 -9 -12 -36 7 -57 24
-27 58 -22 83 12 27 38 61 39 103 4 18 -15 38 -23 49 -21 42 11 50 -123 10
-166 -21 -22 -21 -25 -7 -37 12 -10 15 -23 10 -48 -14 -73 -45 -110 -45 -52 0
27 -3 30 -32 30 -35 0 -68 -24 -68 -49 1 -46 65 -68 102 -34 26 23 22 3 -14
-73 -17 -36 -44 -75 -60 -87 -17 -12 -30 -34 -34 -54 -8 -41 -28 -63 -56 -63
-30 0 -58 -29 -58 -60 0 -35 -34 -68 -54 -51 -26 21 -64 -6 -68 -48 -2 -29 -8
-37 -26 -39 -14 -2 -22 -9 -20 -19 2 -9 -2 -18 -8 -20 -17 -6 -74 49 -74 72 0
27 -9 38 -42 52 -19 9 -28 20 -28 36 0 14 -12 36 -27 51 -24 25 -34 40 -70
109 -14 26 -13 29 10 47 40 32 42 111 2 126 -19 8 -74 -36 -74 -58 -1 -25 -9
-23 -47 15 -41 39 -42 45 -7 49 38 4 54 49 29 77 -31 34 -96 31 -96 -4 0 -8
-2 -15 -4 -15 -17 0 -95 52 -124 83 -20 20 -44 37 -53 37 -10 0 -21 5 -24 10
-3 6 -14 10 -24 10 -10 0 -26 9 -36 20 -10 11 -31 20 -47 20 -15 0 -28 5 -28
10 0 6 -6 10 -14 10 -8 0 -17 15 -20 35 -9 49 -38 62 -79 36 -35 -21 -87 -18
-87 5 0 8 4 14 8 14 15 0 52 37 52 51 -1 8 -12 27 -25 44 l-24 29 -31 -29
c-35 -34 -37 -46 -10 -70 34 -31 24 -38 -47 -30 -111 11 -112 12 -106 51 5 28
1 38 -17 54 -43 37 -87 16 -76 -37 3 -15 2 -35 -3 -43 -8 -12 -13 -12 -35 0
-22 11 -30 11 -50 0 -28 -15 -58 -7 -50 13 3 8 -2 20 -11 27 -8 7 -15 21 -15
32 0 16 -6 19 -37 16 l-38 -3 0 -52 c1 -50 0 -53 -30 -59 -16 -3 -35 -11 -42
-16 -14 -11 -33 -2 -33 15 0 7 -9 18 -20 25 -12 7 -20 23 -20 41 0 21 -8 32
-34 46 -38 21 -66 15 -66 -15 0 -23 -13 -26 -29 -6 -7 8 -24 17 -39 21 -15 4
-49 17 -75 31 -27 13 -54 24 -60 24 -7 0 -29 16 -49 35 -37 36 -62 44 -73 24
-5 -7 -16 -2 -32 13 -18 17 -23 30 -19 50 3 16 0 31 -9 38 -18 15 -88 16 -93
1 -6 -18 -27 -13 -90 19 -33 17 -70 30 -84 30 -14 0 -40 16 -66 40 -22 22 -46
40 -52 40 -5 0 -10 5 -10 10 0 6 -18 10 -39 10 -45 0 -58 12 -36 30 36 30 9
70 -47 70 -31 0 -38 -4 -38 -20 0 -29 -45 -26 -76 5 -17 17 -32 24 -45 20 -10
-4 -19 -3 -19 2 0 9 -48 33 -65 33 -22 0 -75 32 -75 45 0 22 -29 38 -73 38
-23 0 -52 6 -65 15 l-23 15 22 15 c17 12 20 21 14 49 -4 25 -1 42 11 61 16 25
17 25 31 6 13 -17 16 -18 41 -4 19 11 28 25 30 48 3 30 1 32 -28 32 -27 0 -31
3 -24 18 27 63 58 165 63 212 l6 55 46 -3 c51 -4 73 12 67 50 -2 19 -11 24
-42 28 -35 4 -41 9 -48 38 -5 20 -5 40 2 51 5 11 10 33 10 49 0 30 1 30 43 25
23 -3 48 -10 55 -16z m-638 -1377 c10 -40 2 -51 -34 -44 -23 4 -36 1 -45 -10
-8 -9 -37 -23 -65 -31 -28 -9 -64 -27 -80 -40 l-30 -24 27 -27 c15 -15 27 -30
27 -35 0 -5 15 -16 33 -25 17 -9 41 -27 53 -39 11 -12 38 -25 60 -28 23 -4 49
-16 60 -28 10 -11 32 -26 49 -34 50 -21 156 -105 229 -181 80 -84 179 -243
201 -323 8 -31 24 -74 35 -96 13 -25 20 -60 20 -95 0 -30 5 -84 10 -121 9 -63
2 -130 -28 -279 -30 -146 -106 -286 -228 -420 -22 -25 -43 -50 -45 -56 -7 -16
-160 -138 -203 -161 -172 -92 -269 -125 -436 -149 -119 -16 -177 -16 -310 3
-110 15 -179 31 -195 45 -5 4 -17 8 -28 8 -10 0 -72 30 -138 66 -196 108 -348
259 -434 430 -25 49 -45 94 -45 99 0 6 -9 28 -20 50 -11 22 -20 51 -20 66 0
15 -5 40 -11 56 -16 41 -21 243 -8 348 17 135 80 302 164 430 60 92 233 258
326 311 77 45 129 92 129 119 0 20 -39 82 -55 89 -43 16 -7 30 155 62 41 8
111 22 155 30 44 9 89 16 100 16 11 0 49 5 85 10 36 5 106 12 155 14 50 3 133
9 185 14 52 4 117 7 145 6 44 -1 50 -4 55 -26z m-1917 -1365 c15 4 28 1 36 -9
8 -10 23 -13 45 -9 41 6 53 -8 67 -83 5 -33 17 -73 25 -91 7 -17 14 -38 14
-46 0 -17 19 -65 62 -157 49 -102 169 -266 248 -335 19 -16 41 -37 50 -45 41
-38 133 -110 143 -110 5 0 24 -11 41 -24 17 -13 67 -38 111 -56 44 -17 99 -40
122 -51 42 -20 149 -47 278 -70 94 -17 273 -14 365 5 41 9 84 16 95 16 11 0
37 9 58 20 20 11 46 20 58 20 20 0 103 30 144 53 11 6 53 28 94 50 41 21 96
57 124 78 57 45 65 47 72 17 11 -51 36 -591 38 -838 2 -214 -13 -555 -25 -576
-4 -6 -9 -55 -12 -110 -3 -55 -8 -108 -12 -118 -4 -10 -2 -27 5 -38 8 -13 8
-24 1 -38 -15 -28 -12 -46 13 -74 21 -25 27 -26 122 -26 88 1 227 7 291 13 12
1 37 21 57 45 28 34 37 54 42 100 3 31 10 67 16 80 5 13 9 47 9 77 0 30 4 56
8 59 13 8 31 247 47 621 10 256 17 336 28 332 15 -5 33 -151 46 -362 11 -184
8 -788 -4 -871 -7 -50 -6 -51 19 -58 15 -4 34 -2 44 3 9 5 30 7 45 4 16 -3 27
-1 27 6 0 6 7 11 15 11 8 0 15 -4 15 -9 0 -6 24 -8 58 -5 31 3 82 6 113 7 38
1 63 8 76 20 11 9 29 17 41 17 20 0 21 -4 15 -47 -3 -27 -13 -53 -22 -59 -13
-10 -13 -14 -2 -28 15 -18 12 -24 -21 -40 -13 -6 -25 -20 -27 -31 -2 -11 -21
-44 -42 -74 -22 -30 -39 -63 -39 -73 0 -10 -4 -18 -8 -18 -11 0 -52 -82 -52
-103 0 -9 -9 -21 -20 -27 -13 -7 -20 -21 -20 -40 0 -20 -5 -30 -15 -30 -9 0
-18 -8 -22 -17 -3 -10 -13 -26 -21 -36 -18 -20 -35 -49 -56 -92 -8 -16 -31
-48 -50 -70 -20 -22 -36 -44 -36 -49 0 -6 -9 -20 -21 -32 -12 -12 -31 -43 -44
-69 -12 -26 -33 -52 -46 -59 -16 -8 -23 -20 -22 -34 2 -12 -1 -21 -5 -21 -22
4 -30 -5 -36 -41 -5 -32 -10 -40 -28 -40 -24 0 -58 -27 -58 -46 0 -7 -13 -22
-30 -34 -16 -12 -30 -27 -30 -34 0 -7 -14 -22 -31 -35 -16 -12 -35 -33 -41
-47 -6 -13 -16 -24 -23 -24 -12 0 -55 -53 -55 -69 0 -5 -11 -12 -25 -15 -14
-4 -25 -10 -25 -14 0 -9 -85 -98 -104 -109 -8 -5 -36 -28 -63 -53 -27 -25 -64
-56 -81 -69 -17 -13 -32 -32 -34 -44 -2 -14 -12 -21 -31 -23 -16 -1 -39 -14
-52 -28 -12 -13 -41 -34 -64 -46 -23 -11 -44 -27 -48 -35 -3 -8 -10 -15 -17
-15 -10 -1 -117 -67 -143 -90 -24 -20 -114 -70 -128 -70 -8 0 -20 -8 -27 -18
-7 -10 -41 -29 -76 -42 -35 -14 -71 -32 -80 -40 -9 -8 -28 -20 -42 -27 -91
-42 -118 -53 -127 -53 -5 0 -18 -9 -28 -20 -12 -13 -25 -18 -41 -14 -13 3 -37
-1 -55 -10 -18 -9 -38 -16 -46 -16 -7 0 -13 -7 -13 -15 0 -11 -7 -14 -24 -9
-13 3 -27 1 -30 -5 -4 -6 -20 -11 -35 -11 -15 0 -51 -11 -79 -25 -29 -14 -65
-25 -81 -25 -17 0 -31 -6 -35 -16 -5 -13 -9 -14 -20 -5 -14 12 -40 8 -216 -30
-25 -5 -75 -10 -112 -10 -38 -1 -70 -4 -73 -9 -2 -4 -82 -6 -177 -5 -95 1
-181 -2 -191 -7 -9 -5 -23 -5 -30 -1 -17 11 -27 12 -172 28 -71 7 -150 18
-175 23 -25 6 -48 8 -52 6 -4 -3 -29 2 -55 11 -27 10 -66 19 -88 21 -51 5 -63
8 -100 23 -16 7 -48 16 -70 20 -22 4 -58 16 -80 25 -22 10 -49 22 -60 27 -11
4 -51 22 -89 39 -38 16 -77 30 -87 30 -10 0 -21 5 -24 10 -3 6 -13 10 -22 10
-8 0 -26 9 -40 20 -14 11 -33 20 -42 20 -9 0 -36 14 -61 31 -25 17 -58 33 -73
36 -15 3 -32 14 -37 24 -6 9 -23 20 -40 24 -16 4 -30 11 -30 16 0 5 -9 9 -19
9 -10 0 -22 7 -25 16 -4 11 -13 14 -29 10 -18 -4 -27 1 -41 24 -9 17 -23 30
-30 30 -7 0 -25 14 -39 30 -15 17 -33 30 -40 30 -6 0 -36 18 -65 40 -29 22
-57 40 -62 40 -5 0 -15 8 -22 18 -7 10 -35 36 -63 56 -27 21 -72 60 -100 86
-27 27 -71 65 -97 85 -27 20 -48 40 -48 45 0 6 -28 39 -62 74 -178 181 -308
326 -308 344 0 4 -25 34 -55 67 -30 33 -55 65 -55 71 0 7 -7 14 -15 17 -8 4
-21 22 -29 41 -8 19 -24 41 -35 48 -12 7 -21 20 -21 28 0 8 -18 34 -40 58 -22
23 -40 50 -40 61 0 10 -9 30 -20 44 -11 14 -20 29 -20 35 0 5 -9 17 -20 27
-11 10 -20 26 -20 35 0 10 -7 24 -17 31 -9 8 -25 34 -36 59 -11 25 -28 56 -38
69 -18 23 -25 74 -14 103 6 14 65 14 248 1 l77 -5 0 31 c0 21 5 31 15 31 28 0
38 40 32 122 -4 44 -10 84 -13 90 -4 7 -8 33 -9 59 -1 27 -6 54 -12 61 -5 7
-10 40 -12 73 -1 33 -7 101 -12 150 -11 98 -12 108 -24 270 -4 61 -11 115 -15
120 -4 6 -10 62 -14 125 -3 63 -11 153 -17 200 -6 47 -12 183 -15 302 -3 119
-5 229 -6 245 -4 101 6 413 13 413 5 0 9 -11 9 -25 0 -14 8 -29 20 -35 11 -6
20 -15 20 -20 0 -24 100 -150 119 -150 5 0 11 -9 14 -20 3 -12 14 -20 27 -20
13 0 24 -8 27 -20 5 -19 84 -80 104 -80 5 0 9 -4 9 -10 0 -5 17 -19 38 -30 20
-11 51 -29 67 -40 17 -11 37 -22 45 -26 8 -3 22 -10 30 -15 96 -61 294 -110
485 -120 52 -3 233 10 255 19 14 5 49 13 79 17 29 4 77 18 106 30 28 13 70 28
93 34 23 7 54 23 70 36 17 14 37 25 46 25 20 0 84 40 110 69 11 11 23 21 28
21 30 0 233 198 275 268 14 23 28 42 32 42 6 0 103 186 135 262 9 20 16 47 16
61 0 14 5 29 10 32 6 4 8 16 5 26 -4 11 -2 26 4 32 5 7 11 42 13 77 l3 64 48
17 c45 16 50 16 77 1 24 -14 32 -14 53 -3 20 11 31 11 61 0 33 -12 38 -11 58
8 16 17 26 20 39 12 10 -5 29 -7 42 -4z m-4443 -1966 c0 -11 -4 -17 -10 -14
-5 3 -10 13 -10 21 0 8 5 14 10 14 6 0 10 -9 10 -21z"/>
<path d="M10485 12979 c-11 -7 -24 -18 -28 -26 -4 -7 -15 -13 -23 -13 -20 0
-52 -19 -95 -56 -20 -17 -40 -33 -45 -35 -19 -8 -91 -99 -111 -141 -67 -137
-77 -175 -76 -283 1 -131 23 -215 72 -278 23 -30 60 -67 81 -81 34 -22 50 -26
118 -26 155 0 234 68 373 325 53 98 93 265 68 281 -6 3 -6 10 -1 17 16 20 1
121 -27 178 -18 38 -42 67 -81 96 -50 38 -61 42 -130 48 -50 4 -82 2 -95 -6z"/>
<path d="M14644 14936 c-3 -9 -12 -16 -20 -16 -8 0 -14 -9 -14 -20 0 -23 34
-40 81 -40 27 0 29 2 29 40 0 25 -5 40 -12 40 -7 0 -23 3 -35 6 -16 4 -25 1
-29 -10z"/>
<path d="M14512 14828 c-21 -21 -15 -75 10 -92 47 -33 81 -8 76 56 -3 41 -4
43 -38 46 -19 2 -41 -3 -48 -10z"/>
<path d="M14646 14688 c-42 -37 -42 -58 1 -77 22 -10 29 -9 50 11 18 17 23 31
21 58 -4 46 -25 49 -72 8z"/>
<path d="M14864 14695 c-22 -34 -14 -57 29 -80 l38 -20 20 24 c34 41 7 101
-45 101 -16 0 -32 -9 -42 -25z"/>
<path d="M15106 14683 c-17 -36 -17 -37 6 -55 29 -22 62 -23 82 -2 20 19 20
38 1 54 -8 7 -15 19 -15 26 0 9 -11 14 -28 14 -23 0 -32 -7 -46 -37z"/>
<path d="M14392 14687 c-9 -10 -9 -20 1 -40 22 -49 93 -28 85 25 -2 18 -10 24
-39 26 -21 2 -40 -2 -47 -11z"/>
<path d="M14991 14585 c-21 -23 -22 -28 -11 -55 11 -27 17 -30 56 -30 34 0 44
4 49 20 7 21 -5 48 -31 74 -21 22 -35 20 -63 -9z"/>
<path d="M14522 14577 c-12 -13 -22 -33 -22 -45 0 -26 41 -55 72 -50 21 3 23
8 23 58 0 51 -2 55 -25 58 -17 2 -33 -5 -48 -21z"/>
<path d="M14762 14577 c-31 -33 -29 -75 4 -87 42 -16 64 -12 76 16 10 21 9 31
-7 60 -21 40 -43 43 -73 11z"/>
<path d="M15240 14590 c0 -5 -7 -10 -16 -10 -11 0 -14 -6 -10 -20 3 -11 9 -29
12 -40 4 -16 14 -20 50 -20 54 0 62 14 39 64 -14 29 -23 36 -46 36 -16 0 -29
-4 -29 -10z"/>
<path d="M15483 14583 c-26 -18 -29 -40 -8 -67 13 -17 20 -18 52 -10 33 8 38
13 36 37 -2 30 -24 57 -45 56 -7 0 -23 -7 -35 -16z"/>
<path d="M15355 14465 c-14 -14 -25 -29 -25 -34 0 -17 27 -40 57 -46 25 -5 34
-2 47 16 16 23 11 43 -20 73 -21 22 -29 20 -59 -9z"/>
<path d="M14396 14455 c-21 -32 -20 -58 2 -78 33 -30 58 -21 77 28 13 36 14
49 5 60 -20 24 -65 19 -84 -10z"/>
<path d="M14882 14457 c-28 -29 -29 -73 -3 -87 35 -18 60 -12 76 20 15 28 14
33 -2 60 -21 36 -42 38 -71 7z"/>
<path d="M15113 14465 c-7 -7 -15 -25 -18 -38 -14 -56 90 -79 109 -25 15 43
-6 78 -46 78 -18 -1 -38 -7 -45 -15z"/>
<path d="M15578 14455 c-17 -38 3 -75 40 -75 32 0 62 27 62 54 0 27 -25 46
-60 46 -23 0 -33 -6 -42 -25z"/>
<path d="M14674 14450 c-17 -4 -36 -10 -42 -14 -14 -8 -16 -36 -3 -36 5 0 11
-9 14 -21 9 -32 56 -22 78 18 16 29 16 32 1 46 -12 9 -27 12 -48 7z"/>
<path d="M15237 14362 c-35 -38 -12 -112 34 -112 23 0 59 34 59 55 0 15 -56
75 -70 75 -4 0 -14 -8 -23 -18z"/>
<path d="M14758 14350 c-37 -43 -9 -96 43 -83 33 8 49 22 49 42 0 47 -63 75
-92 41z"/>
<path d="M15003 14347 c-23 -12 -40 -55 -26 -67 4 -4 29 -10 55 -13 45 -6 48
-5 54 18 8 34 -1 55 -26 55 -11 0 -20 5 -20 10 0 12 -8 11 -37 -3z"/>
<path d="M15456 14338 c-23 -32 -20 -53 9 -66 29 -13 55 -15 79 -6 19 7 21 52
2 77 -19 25 -71 22 -90 -5z"/>
<path d="M15695 14333 c-18 -26 -17 -27 9 -50 36 -31 83 -31 95 0 5 13 7 35 4
50 -5 24 -10 27 -48 27 -35 0 -46 -5 -60 -27z"/>
<path d="M15940 14339 c-19 -34 -3 -77 31 -84 36 -8 79 16 79 44 0 52 -87 84
-110 40z"/>
<path d="M14524 14326 c-3 -8 -4 -27 -2 -43 3 -25 7 -28 37 -26 18 0 41 8 49
17 14 14 14 18 -8 41 -26 27 -67 33 -76 11z"/>
<path d="M15352 14237 c-38 -41 -19 -117 29 -117 20 0 59 37 59 56 0 26 -40
83 -61 84 -3 0 -15 -10 -27 -23z"/>
<path d="M14881 14214 c-37 -41 -38 -48 -9 -68 31 -22 51 -20 77 8 23 24 23
25 5 55 -26 44 -39 44 -73 5z"/>
<path d="M15108 14218 c-21 -26 -23 -61 -5 -76 18 -15 85 1 102 25 19 24 18
37 -3 56 -26 24 -73 21 -94 -5z"/>
<path d="M15588 14218 c-10 -12 -18 -27 -18 -33 0 -22 32 -55 53 -55 27 0 57
32 57 61 0 48 -61 66 -92 27z"/>
<path d="M15818 14214 c-24 -52 31 -102 81 -74 33 17 28 71 -6 88 -41 18 -62
15 -75 -14z"/>
<path d="M16060 14191 c0 -50 9 -61 49 -61 19 0 51 33 51 53 0 22 -45 57 -73
57 -26 0 -27 -3 -27 -49z"/>
<path d="M16325 14230 c-3 -5 -15 -10 -26 -10 -27 0 -24 -27 7 -55 30 -28 59
-32 80 -11 17 18 18 58 2 74 -15 15 -54 16 -63 2z"/>
<path d="M15243 14120 c-42 -17 -42 -94 0 -109 16 -6 30 -3 49 11 37 25 46 63
23 88 -19 22 -37 24 -72 10z"/>
<path d="M15475 14105 c-41 -42 -32 -83 23 -100 53 -16 95 71 54 108 -26 24
-47 21 -77 -8z"/>
<path d="M15940 14098 c-26 -42 -22 -58 17 -80 31 -19 31 -19 57 7 25 25 36
75 16 75 -5 0 -10 7 -10 15 0 10 -10 15 -30 15 -23 0 -35 -7 -50 -32z"/>
<path d="M14993 14093 c-19 -40 -16 -59 12 -77 19 -13 29 -14 49 -5 33 16 39
33 21 75 -11 27 -19 34 -42 34 -21 0 -31 -7 -40 -27z"/>
<path d="M16184 14096 c-3 -13 -4 -37 -2 -52 3 -27 6 -29 48 -29 39 0 45 3 48
23 2 12 -2 36 -10 52 -10 24 -19 30 -45 30 -26 0 -34 -5 -39 -24z"/>
<path d="M16437 14113 c-17 -16 -6 -61 18 -77 31 -21 45 -13 45 23 0 39 -42
75 -63 54z"/>
<path d="M15697 14094 c-13 -13 -7 -52 9 -69 11 -10 29 -15 53 -13 35 3 36 4
36 43 l0 40 -45 3 c-25 2 -49 0 -53 -4z"/>
<path d="M15367 14003 c-10 -3 -23 -16 -28 -30 -8 -21 -6 -30 12 -50 38 -39
99 -26 99 22 0 41 -40 69 -83 58z"/>
<path d="M16073 14002 c-23 -15 -26 -66 -6 -91 16 -20 23 -22 53 -14 31 8 35
13 38 45 2 28 -2 40 -20 52 -25 17 -46 20 -65 8z"/>
<path d="M16300 13984 c-15 -38 -12 -50 15 -68 20 -13 30 -14 46 -5 17 9 20
17 15 41 -12 61 -58 80 -76 32z"/>
<path d="M16553 14003 c-7 -2 -13 -15 -13 -28 0 -13 -4 -27 -10 -30 -17 -10
-12 -20 20 -38 46 -28 70 -10 70 53 0 48 -1 50 -27 49 -16 0 -34 -3 -40 -6z"/>
<path d="M15569 13977 c-14 -32 4 -75 38 -88 36 -13 53 -5 53 26 0 14 5 25 10
25 15 0 12 29 -4 46 -8 8 -31 14 -51 14 -27 0 -38 -5 -46 -23z"/>
<path d="M15818 13975 c-18 -41 0 -80 37 -80 35 0 65 21 65 45 0 23 -42 60
-68 60 -14 0 -27 -9 -34 -25z"/>
<path d="M16772 13988 c-15 -15 -15 -27 1 -61 27 -59 87 -36 87 35 0 37 -1 38
-38 38 -21 0 -43 -5 -50 -12z"/>
<path d="M15938 13865 c-16 -36 0 -77 35 -89 53 -19 90 57 45 95 -31 27 -66
24 -80 -6z"/>
<path d="M16175 13854 c-19 -47 -19 -50 7 -68 29 -21 50 -20 76 3 29 24 28 39
-5 73 -37 38 -59 36 -78 -8z"/>
<path d="M16437 13872 c-20 -22 -22 -63 -5 -80 20 -20 46 -14 67 17 28 38 27
67 -1 75 -35 9 -44 7 -61 -12z"/>
<path d="M16673 13884 c-7 -3 -13 -16 -13 -29 0 -43 10 -55 47 -55 34 0 34 0
31 43 -3 37 -6 42 -28 44 -14 1 -31 -1 -37 -3z"/>
<path d="M16915 13882 c-14 -10 -35 -49 -35 -66 0 -7 16 -21 36 -31 45 -21 64
-8 64 45 0 30 -5 39 -25 48 -30 14 -27 14 -40 4z"/>
<path d="M15467 13873 c-12 -11 -7 -57 7 -75 17 -23 49 -23 69 0 20 22 21 41
3 65 -13 17 -66 24 -79 10z"/>
<path d="M15701 13858 c-10 -25 3 -54 32 -72 12 -8 22 -5 42 14 14 13 25 30
25 37 0 44 -84 61 -99 21z"/>
<path d="M16542 13754 c-23 -16 -29 -48 -12 -59 6 -3 10 -15 10 -26 0 -23 27
-25 58 -3 27 19 29 64 4 87 -23 21 -32 21 -60 1z"/>
<path d="M16795 13762 c-16 -12 -35 -50 -35 -72 0 -24 43 -44 77 -35 20 5 23
12 23 48 0 57 -31 85 -65 59z"/>
<path d="M17020 13736 c-5 -13 -14 -27 -19 -31 -16 -9 -13 -25 4 -25 8 0 15
-4 15 -9 0 -5 9 -13 20 -16 24 -8 70 30 70 57 0 46 -74 66 -90 24z"/>
<path d="M17240 13745 c-26 -31 24 -101 64 -89 20 6 46 31 46 45 0 3 -9 18
-21 33 -23 29 -69 35 -89 11z"/>
<path d="M17142 13631 c-34 -28 -28 -64 12 -86 40 -22 56 -14 77 37 12 28 11
32 -10 49 -29 24 -52 24 -79 0z"/>
<path d="M17378 13639 c-11 -6 -18 -22 -18 -41 0 -57 73 -81 104 -33 35 54
-28 108 -86 74z"/>
<path d="M17633 13643 c-7 -2 -13 -13 -13 -23 0 -10 -6 -20 -12 -23 -23 -8 33
-58 62 -55 22 3 25 8 28 46 3 38 0 43 -23 52 -14 6 -27 10 -28 9 -1 0 -8 -3
-14 -6z"/>
<path d="M16672 13617 c-17 -18 -21 -31 -16 -55 6 -27 11 -32 35 -32 24 0 33
7 46 36 17 35 17 36 -7 55 -32 24 -32 24 -58 -4z"/>
<path d="M16896 13615 c-9 -13 -16 -36 -16 -50 0 -30 21 -33 68 -9 25 12 32
22 32 44 0 46 -57 56 -84 15z"/>
<path d="M17267 13514 c-37 -31 -38 -80 -2 -94 30 -11 70 1 79 25 25 66 -26
113 -77 69z"/>
<path d="M16782 13514 c-28 -20 -28 -45 1 -72 28 -27 39 -27 60 -4 22 24 21
55 -1 75 -23 21 -32 21 -60 1z"/>
<path d="M17022 13511 c-39 -33 -24 -81 29 -94 37 -9 53 13 46 60 -9 54 -38
67 -75 34z"/>
<path d="M17487 13513 c-12 -11 -7 -57 7 -76 13 -17 17 -17 44 -3 24 13 42 34
42 51 0 6 -62 35 -75 35 -6 0 -15 -3 -18 -7z"/>
<path d="M17137 13390 c-9 -11 -17 -36 -17 -55 0 -29 4 -35 23 -37 42 -3 62 2
75 19 43 58 -34 127 -81 73z"/>
<path d="M17388 13393 c-32 -20 -41 -38 -32 -65 12 -38 67 -44 107 -10 23 20
22 34 -8 66 -28 30 -31 31 -67 9z"/>
<path d="M17256 13279 c-36 -29 -34 -99 3 -99 9 0 22 -5 29 -12 10 -10 19 -6
44 19 29 29 30 34 19 61 -7 16 -24 34 -37 41 -31 14 -27 15 -58 -10z"/>
<path d="M17485 13266 c-20 -14 -20 -15 -1 -50 23 -44 43 -45 81 -6 24 25 27
34 19 48 -14 22 -73 27 -99 8z"/>
<path d="M17371 13154 c-28 -20 -22 -57 16 -90 21 -18 31 -21 46 -12 11 5 22
19 24 29 3 10 9 19 14 19 22 0 7 41 -21 55 -37 19 -50 19 -79 -1z"/>
<path d="M17127 13153 c-12 -11 -8 -64 6 -77 7 -7 25 -16 40 -20 23 -5 27 -3
27 14 0 12 4 30 10 40 7 14 6 23 -6 34 -15 16 -65 22 -77 9z"/>
<path d="M17263 13043 c-47 -32 -12 -123 41 -107 25 7 46 32 46 54 0 14 -49
71 -61 69 -2 0 -14 -7 -26 -16z"/>
<path d="M13165 13026 c-52 -15 -95 -39 -119 -65 -11 -12 -24 -21 -31 -21 -6
0 -27 -21 -46 -47 -18 -27 -40 -55 -48 -65 -8 -9 -31 -48 -52 -86 -36 -66 -56
-144 -58 -227 0 -16 -1 -46 -1 -66 -1 -37 23 -131 41 -159 5 -8 17 -28 27 -45
9 -16 35 -46 56 -67 33 -30 52 -39 108 -49 52 -9 74 -9 93 -1 14 7 35 12 46
12 22 0 129 95 129 115 0 7 8 19 18 29 26 23 104 190 115 245 5 25 11 71 14
101 2 30 9 59 14 65 13 14 11 58 -7 133 -17 70 -42 132 -54 132 -4 0 -28 16
-53 35 -52 40 -124 52 -192 31z"/>
<path d="M11591 11605 c-23 -8 -40 -24 -54 -51 -11 -21 -28 -50 -38 -63 -11
-13 -19 -32 -19 -42 0 -10 -9 -23 -20 -29 -10 -5 -31 -34 -45 -63 -15 -28 -32
-59 -39 -67 -7 -8 -19 -31 -26 -50 -8 -19 -16 -37 -19 -40 -3 -3 -12 -15 -18
-27 -40 -72 -73 -148 -73 -170 -1 -10 -7 -29 -15 -43 -8 -14 -14 -42 -15 -63
0 -21 -4 -47 -10 -57 -18 -33 21 -238 53 -276 124 -148 236 -211 426 -240 83
-13 96 -13 117 1 13 8 30 15 39 15 17 0 105 87 105 104 0 13 -66 69 -95 81
-11 4 -39 12 -62 16 -24 5 -62 13 -85 18 -133 28 -229 80 -261 142 -28 54 -11
236 26 290 10 13 17 36 17 51 0 15 4 30 10 33 5 3 29 45 52 93 23 48 50 99 60
114 10 14 18 33 18 42 0 8 6 19 14 23 7 4 24 28 37 51 13 24 32 58 41 75 33
59 14 127 -35 127 -9 0 -19 5 -22 10 -8 12 -20 11 -64 -5z"/>
<path d="M12509 9391 c-126 -66 -169 -87 -199 -99 -14 -6 -42 -17 -62 -26 -21
-9 -53 -22 -70 -30 -55 -23 -140 -46 -149 -41 -4 3 -16 2 -26 -3 -31 -16 -88
-32 -115 -32 -13 0 -28 -3 -32 -7 -4 -5 -35 -9 -69 -11 -86 -3 -119 -7 -141
-17 -13 -6 -21 -5 -24 3 -2 7 -23 12 -51 12 -26 0 -51 4 -56 9 -15 13 -95 21
-95 9 0 -5 -9 -7 -19 -3 -25 8 -61 -14 -61 -37 0 -10 -4 -18 -10 -18 -5 0 -10
-19 -10 -42 1 -61 30 -93 103 -112 31 -8 61 -18 66 -21 17 -10 114 -16 276
-17 182 -2 273 5 304 21 12 7 25 10 30 7 9 -6 40 3 146 39 28 9 63 19 79 22
15 3 62 23 102 44 41 22 81 39 89 39 8 0 19 9 25 20 6 11 15 18 20 15 16 -10
81 27 93 52 6 14 19 23 34 23 27 0 55 25 79 71 20 40 14 117 -13 154 -16 22
-25 24 -84 25 -61 0 -75 -4 -160 -49z"/>
</g>
</svg>
