<svg viewBox="0 0 1080 1080" fill="none" xmlns="http://www.w3.org/2000/svg">        <defs>    <filter id="filter" x="-20%" y="-20%" width="140%" height="140%" filterUnits="objectBoundingBox" primitiveUnits="userSpaceOnUse" color-interpolation-filters="linearRGB">      <feMorphology operator="dilate" radius="20 20" in="SourceAlpha" result="morphology"/>      <feFlood flood-color="#ffffff" flood-opacity="1" result="flood"/>      <feComposite in="flood" in2="morphology" operator="in" result="composite"/>      <feMerge result="merge">            <feMergeNode in="composite" result="mergeNode"/>        <feMergeNode in="SourceGraphic" result="mergeNode1"/>        </feMerge>    </filter>  </defs>        <g id="notion-avatar" filter="url(#filter)">          <g id="notion-avatar-face" fill="#ffffff">            <title>Face/ 0</title>    <g id="Face/-0" stroke="none" stroke-width="1" fill-rule="evenodd" stroke-linecap="round" stroke-linejoin="round">        <path d="M532,379 C664.54834,379 772,486.45166 772,619 C772,751.54834 664.54834,859 532,859 C435.13263,859 351.668898,801.612202 313.752775,718.980575 L313.322946,718.989282 L312,719 C267.81722,719 232,683.18278 232,639 C232,599.134956 261.158843,566.080325 299.312086,560.00055 C325.599297,455.979213 419.809919,379 532,379 Z M295.858895,624.545187 L304.141105,655.454813" id="Path" stroke="#000000" stroke-width="24"/>    </g>      </g><g id="notion-avatar-nose">            <title>Nose/ 7</title>    <g id="Nose/-7" stroke="none" stroke-width="1" fill="none" fill-rule="evenodd" stroke-linecap="round" stroke-linejoin="round">        <path d="M649,600 C669,606.666667 679,620 679,640 C679,660 669,673.333333 649,680" id="Path" stroke="#000000" stroke-width="16"/>    </g>      </g><g id="notion-avatar-mouth">            <title>Mouth/ 2</title>    <g id="Mouth/-2" stroke="none" stroke-width="1" fill="none" fill-rule="evenodd" stroke-linecap="round" stroke-linejoin="round">        <path d="M572,769 C585.775809,774.333333 599.109142,777 612,777 C624.890858,777 638.224191,774.333333 652,769" id="Path" stroke="#000000" stroke-width="16"/>    </g>      </g><g id="notion-avatar-eyes">            <title>Eyes/ 0</title>    <g id="Eyes/-0" stroke="none" stroke-width="1" fill="none" fill-rule="evenodd">        <path d="M570,516 C583.254834,516 594,526.745166 594,540 C594,553.254834 583.254834,564 570,564 C556.745166,564 546,553.254834 546,540 C546,526.745166 556.745166,516 570,516 Z M708,516 C721.254834,516 732,526.745166 732,540 C732,553.254834 721.254834,564 708,564 C694.745166,564 684,553.254834 684,540 C684,526.745166 694.745166,516 708,516 Z" id="Combined-Shape" fill="#000000"/>    </g>      </g><g id="notion-avatar-eyebrows">            <title>Eyebrows/ 7</title>    <g id="Eyebrows/-7" stroke="none" stroke-width="1" fill="none" fill-rule="evenodd" stroke-linecap="round" stroke-linejoin="round">        <g id="Group" transform="translate(528.000000, 485.000000)" stroke="#000000" stroke-width="16">            <path d="M2,31 C13.6420073,23.1142473 23.8820073,17.5142473 32.72,14.2 C41.5579927,10.8857527 52.651326,8.48575274 66,7" id="Path" transform="translate(34.000000, 19.000000) rotate(12.000000) translate(-34.000000, -19.000000) "/>            <path d="M156,31 C167.642007,23.1142473 177.882007,17.5142473 186.72,14.2 C195.557993,10.8857527 206.651326,8.48575274 220,7" id="Path" transform="translate(188.000000, 19.000000) scale(-1, 1) rotate(12.000000) translate(-188.000000, -19.000000) "/>        </g>    </g>      </g><g id="notion-avatar-glasses">            <title>Glasses/ 0</title>    <g id="Glasses/-0" stroke="none" stroke-width="1" fill="none" fill-rule="evenodd"/>      </g><g id="notion-avatar-hair">            <title>Hairstyle/ 27</title>    <g id="Hairstyle/-27" stroke="none" stroke-width="1" fill="none" fill-rule="evenodd" stroke-linecap="round" stroke-linejoin="round">        <path d="M469,157 C744,136 814,448 814,525 C814,602 789.644252,616.859223 788,639 C785.528757,672.27668 773.195423,693.27668 751,702 C763,642 765,594.333333 757,559 C749,523.666667 715.53461,470.720366 684,442 C662.976927,422.85309 632.976927,406.85309 594,394 L592.84354,395.787816 C574.012521,424.789816 565,457 540,472 C518.954181,484.627491 457.552319,502.442896 436,516 C406.059704,534.833412 324,689 392,769 C437.333333,822.333333 443,926 409,1080 L37,1080 C72.9628691,984.988198 82.9628691,900.654864 67,827 C54.8790322,771.072195 91.0558208,712.460647 108,637 C124.528113,563.392299 96,516 121,442 C146,368 194,178 469,157 Z" id="Path" stroke="#000000" stroke-width="12" fill="#000000"/>    </g>      </g><g id="notion-avatar-accessories">            <title>Accessories/ 0</title>    <g id="Accessories/-0" stroke="none" stroke-width="1" fill="none" fill-rule="evenodd"/>      </g><g id="notion-avatar-details">            <title>Details/ 3</title>    <g id="Details/-3" stroke="none" stroke-width="1" fill="none" fill-rule="evenodd" stroke-linecap="round" stroke-linejoin="round">        <path d="M491.752948,639.020916 L486.914511,658.42683 M511.752948,639.020916 L506.914511,658.42683 M531.752948,639.020916 L526.914511,658.42683 M789.247052,639.020916 L794.085489,658.42683 M769.247052,639.020916 L774.085489,658.42683 M749.247052,639.020916 L754.085489,658.42683" id="Combined-Shape" stroke="#000000" stroke-width="12"/>    </g>      </g><g id="notion-avatar-beard">            <title>Beard/ 0</title>    <g id="Beard/-0" stroke="none" stroke-width="1" fill="none" fill-rule="evenodd"/>      </g>        </g>        </svg>
